<?xml version="1.0" encoding="UTF-8" standalone="no"?>
<svg width="27px" height="27px" viewBox="0 0 27 27" version="1.1" xmlns="http://www.w3.org/2000/svg"
     xmlns:xlink="http://www.w3.org/1999/xlink" xmlns:sketch="http://www.bohemiancoding.com/sketch/ns">
  <!-- Generator: Sketch 3.5.1 (25234) - http://www.bohemiancoding.com/sketch -->
  <title>Group</title>
  <desc>Created with Sketch.</desc>
  <defs></defs>
  <g id="FE-Page-de-bien-" stroke="none" stroke-width="1" fill="none" fill-rule="evenodd" sketch:type="MSPage">
    <g id="Property-Page-1024---Location" sketch:type="MSArtboardGroup" transform="translate(-86.000000, -788.000000)"
       stroke-linecap="round" stroke="#000000" stroke-linejoin="round">
      <g id="Appartement--+-Group" sketch:type="MSLayerGroup" transform="translate(24.000000, 788.000000)">
        <g id="Group" transform="translate(62.000000, 0.000000)" sketch:type="MSShapeGroup">
          <path d="M0.561728395,26.4012346 L26.4012346,26.4012346" id="Stroke-5565"></path>
          <path
            d="M21.9074074,26.4012346 L5.05555556,26.4012346 L5.05555556,5.05555556 L21.9074074,5.05555556 L21.9074074,26.4012346 Z"
            id="Stroke-5566"></path>
          <path
            d="M23.0308642,3.93209877 L13.4814815,0.561728395 L3.93209877,3.93209877 L3.93209877,5.05555556 L23.0308642,5.05555556 L23.0308642,3.93209877 L23.0308642,3.93209877 Z"
            id="Stroke-5567"></path>
          <path
            d="M15.1666667,26.4012346 L11.7962963,26.4012346 L11.7962963,20.7839506 L15.1666667,20.7839506 L15.1666667,26.4012346 Z"
            id="Stroke-5568"></path>
          <path
            d="M9.54938272,9.54938272 L7.30246914,9.54938272 L7.30246914,7.30246914 L9.54938272,7.30246914 L9.54938272,9.54938272 Z"
            id="Stroke-5569"></path>
          <path
            d="M15.1666667,9.54938272 L11.7962963,9.54938272 L11.7962963,7.30246914 L15.1666667,7.30246914 L15.1666667,9.54938272 Z"
            id="Stroke-5570"></path>
          <path
            d="M19.6604938,9.54938272 L17.4135802,9.54938272 L17.4135802,7.30246914 L19.6604938,7.30246914 L19.6604938,9.54938272 Z"
            id="Stroke-5571"></path>
          <path
            d="M9.54938272,14.0432099 L7.30246914,14.0432099 L7.30246914,11.7962963 L9.54938272,11.7962963 L9.54938272,14.0432099 Z"
            id="Stroke-5572"></path>
          <path
            d="M15.1666667,14.0432099 L11.7962963,14.0432099 L11.7962963,11.7962963 L15.1666667,11.7962963 L15.1666667,14.0432099 Z"
            id="Stroke-5573"></path>
          <path
            d="M19.6604938,14.0432099 L17.4135802,14.0432099 L17.4135802,11.7962963 L19.6604938,11.7962963 L19.6604938,14.0432099 Z"
            id="Stroke-5574"></path>
          <path
            d="M9.54938272,18.537037 L7.30246914,18.537037 L7.30246914,16.2901235 L9.54938272,16.2901235 L9.54938272,18.537037 Z"
            id="Stroke-5575"></path>
          <path
            d="M15.1666667,18.537037 L11.7962963,18.537037 L11.7962963,16.2901235 L15.1666667,16.2901235 L15.1666667,18.537037 Z"
            id="Stroke-5576"></path>
          <path
            d="M19.6604938,18.537037 L17.4135802,18.537037 L17.4135802,16.2901235 L19.6604938,16.2901235 L19.6604938,18.537037 Z"
            id="Stroke-5577"></path>
          <path
            d="M9.54938272,23.0308642 L7.30246914,23.0308642 L7.30246914,20.7839506 L9.54938272,20.7839506 L9.54938272,23.0308642 Z"
            id="Stroke-5578"></path>
          <path
            d="M19.6604938,23.0308642 L17.4135802,23.0308642 L17.4135802,20.7839506 L19.6604938,20.7839506 L19.6604938,23.0308642 Z"
            id="Stroke-5579"></path>
        </g>
      </g>
    </g>
  </g>
</svg>
