<?xml version="1.0" encoding="UTF-8" standalone="no"?>
<svg width="16px" height="22px" viewBox="0 0 16 22" version="1.1" xmlns="http://www.w3.org/2000/svg"
     xmlns:xlink="http://www.w3.org/1999/xlink" xmlns:sketch="http://www.bohemiancoding.com/sketch/ns">
  <!-- Generator: Sketch 3.5.1 (25234) - http://www.bohemiancoding.com/sketch -->
  <title>Group</title>
  <desc>Created with Sketch.</desc>
  <defs></defs>
  <g id="FE-Page-de-Recherch" stroke="none" stroke-width="1" fill="none" fill-rule="evenodd" sketch:type="MSPage">
    <g id="Group" sketch:type="MSLayerGroup" transform="translate(-26.000000, -698.000000)" stroke="#727272"
       stroke-linejoin="round">
      <g transform="translate(21.000000, 255.000000)" sketch:type="MSShapeGroup">
        <g transform="translate(6.000000, 444.000000)">
          <path
            d="M13.5833333,19.5833333 L0.0833333333,19.5833333 L0.0833333333,7.91666667 L13.5833333,7.91666667 L13.5833333,19.5833333 Z"
            id="Stroke-3874"></path>
          <path d="M2.58333333,0.416666667 L2.58333333,6.25" id="Stroke-3876" stroke-linecap="round"></path>
          <path d="M5.08333333,2.91666667 L2.58333333,0.416666667 L0.0833333333,2.91666667" id="Stroke-3877"
                stroke-linecap="round"></path>
          <path d="M9.41666667,6.25 L9.41666667,0.416666667" id="Stroke-3878" stroke-linecap="round"></path>
          <path d="M6.91666667,3.75 L9.41666667,6.25 L11.9166667,3.75" id="Stroke-3879" stroke-linecap="round"></path>
          <path
            d="M6.08333333,12.9166667 C6.08333333,14.1841667 5.25,15.3125 5.25,15.3125 L5.25,17.9166667 L2.75,17.9166667 L2.75,15.3125 C2.75,15.3125 1.91666667,14.1841667 1.91666667,12.9166667 L6.08333333,12.9166667 L6.08333333,12.9166667 Z"
            id="Stroke-3881"></path>
          <path
            d="M5.25,11.25 C5.25,11.94 4.69,12.5 4,12.5 C3.31,12.5 2.75,11.94 2.75,11.25 C2.75,10.56 3.31,10 4,10 C4.69,10 5.25,10.56 5.25,11.25 L5.25,11.25 Z"
            id="Stroke-3882"></path>
          <path
            d="M11.9166667,12.9166667 C11.9166667,14.1841667 11.0833333,15.3125 11.0833333,15.3125 L11.0833333,17.9166667 L8.58333333,17.9166667 L8.58333333,15.3125 C8.58333333,15.3125 7.75,14.1841667 7.75,12.9166667 L11.9166667,12.9166667 L11.9166667,12.9166667 Z"
            id="Stroke-3883"></path>
          <path
            d="M11.0833333,11.25 C11.0833333,11.94 10.5233333,12.5 9.83333333,12.5 C9.14333333,12.5 8.58333333,11.94 8.58333333,11.25 C8.58333333,10.56 9.14333333,10 9.83333333,10 C10.5233333,10 11.0833333,10.56 11.0833333,11.25 L11.0833333,11.25 Z"
            id="Stroke-3884"></path>
        </g>
      </g>
    </g>
  </g>
</svg>
