<?xml version="1.0" encoding="UTF-8" standalone="no"?>
<svg width="21px" height="19px" viewBox="0 0 21 19" version="1.1" xmlns="http://www.w3.org/2000/svg"
     xmlns:xlink="http://www.w3.org/1999/xlink" xmlns:sketch="http://www.bohemiancoding.com/sketch/ns">
  <!-- Generator: Sketch 3.5.1 (25234) - http://www.bohemiancoding.com/sketch -->
  <title>Group</title>
  <desc>Created with Sketch.</desc>
  <defs></defs>
  <g id="FE-Page-de-Recherch" stroke="none" stroke-width="1" fill="none" fill-rule="evenodd" sketch:type="MSPage">
    <g id="Group" sketch:type="MSLayerGroup" transform="translate(-22.000000, -255.000000)" stroke="#727272"
       stroke-linejoin="round">
      <g transform="translate(21.000000, 255.000000)" sketch:type="MSShapeGroup">
        <g transform="translate(1.000000, 0.000000)">
          <path
            d="M13.0893043,6.97434783 C13.0893043,10.3465217 10.4345217,13.0795652 10.4345217,13.0795652 C10.4345217,13.0795652 7.7806087,10.3465217 7.7806087,6.97434783 C7.7806087,3.60304348 10.4345217,0.869130435 10.4345217,0.869130435 C10.4345217,0.869130435 13.0893043,3.60304348 13.0893043,6.97434783 L13.0893043,6.97434783 Z"
            id="Stroke-5149"></path>
          <path
            d="M12.4413913,3.91217391 C13.8761739,2.73478261 15.4196522,2.29826087 15.4196522,2.29826087 C15.4196522,2.29826087 16.6474783,6.14434783 15.2718261,9.12086957 C13.8953043,12.0991304 10.4344348,13.08 10.4344348,13.08"
            id="Stroke-5150"></path>
          <path
            d="M15.9171304,6.07252174 C17.6771304,5.79773913 19.2371304,6.24904348 19.2371304,6.24904348 C19.2371304,6.24904348 18.751913,10.3081739 16.3214783,12.1951304 C13.8901739,14.0812174 10.4345217,13.0803478 10.4345217,13.0803478"
            id="Stroke-5151"></path>
          <path
            d="M8.5113913,3.9813913 C7.05313043,2.75182609 5.45052174,2.29791304 5.45052174,2.29791304 C5.45052174,2.29791304 4.22182609,6.14486957 5.59747826,9.1213913 C6.974,12.0987826 10.4348696,13.0796522 10.4348696,13.0796522"
            id="Stroke-5152"></path>
          <path
            d="M4.97791304,6.07591304 C3.2066087,5.79330435 1.63182609,6.24895652 1.63182609,6.24895652 C1.63182609,6.24895652 2.11791304,10.308087 4.54834783,12.1950435 C6.97965217,14.0811304 10.4344348,13.0802609 10.4344348,13.0802609 C10.4344348,13.0802609 10.4318261,13.0567826 10.4257391,13.0133043"
            id="Stroke-5153"></path>
          <path
            d="M3.05365217,10.4330435 C1.68930435,11.2113043 0.869304348,12.2121739 0.869304348,13.3147826 C0.869304348,15.8356522 4.93452174,17.8521739 10.2171304,17.8521739 C12.1432174,17.8521739 14.3475652,17.5521739 15.2171304,17.0834783 L15.2171304,14.3478261 L19.8910435,14.3478261 C20.0188696,12.6234783 19.1371304,11.3852174 17.7806087,10.5226087"
            id="Stroke-5154"></path>
        </g>
      </g>
    </g>
  </g>
</svg>
