<?xml version="1.0" encoding="UTF-8" standalone="no"?>
<svg width="15px" height="25px" viewBox="0 0 15 25" version="1.1" xmlns="http://www.w3.org/2000/svg"
     xmlns:xlink="http://www.w3.org/1999/xlink" xmlns:sketch="http://www.bohemiancoding.com/sketch/ns">
  <!-- Generator: Sketch 3.4.4 (17249) - http://www.bohemiancoding.com/sketch -->
  <title>Group</title>
  <desc>Created with Sketch.</desc>
  <defs></defs>
  <g id="FE-Index" stroke="none" stroke-width="1" fill="none" fill-rule="evenodd" sketch:type="MSPage">
    <g id="Index-1024" sketch:type="MSArtboardGroup" transform="translate(-278.000000, -3035.000000)" stroke="#FFFFFF"
       stroke-linejoin="round">
      <g id="Foot-1024" sketch:type="MSLayerGroup" transform="translate(0.000000, 2946.000000)">
        <g id="Group" transform="translate(278.000000, 89.000000)" sketch:type="MSShapeGroup">
          <path
            d="M0.5005,2.52409766 C0.5005,1.42009766 1.3955,0.524097656 2.5005,0.524097656 L11.5005,0.524097656 C12.6055,0.524097656 13.5005,1.42009766 13.5005,2.52409766 L13.5005,21.5240977 C13.5005,22.6290977 12.6055,23.5240977 11.5005,23.5240977 L2.5005,23.5240977 C1.3955,23.5240977 0.5005,22.6290977 0.5005,21.5240977 L0.5005,2.52409766 L0.5005,2.52409766 Z"
            id="Stroke-309" stroke-linecap="round"></path>
          <path d="M0.5005,4.52409766 L13.5005,4.52409766" id="Stroke-310" stroke-linecap="round"></path>
          <path d="M0.5005,19.5240977 L13.5005,19.5240977" id="Stroke-311" stroke-linecap="round"></path>
          <path d="M9.5005,21.5240977 L4.5005,21.5240977" id="Stroke-312" stroke-linecap="round"></path>
          <path
            d="M7.0005,2.02409766 C7.2765,2.02409766 7.5005,2.24809766 7.5005,2.52409766 C7.5005,2.80009766 7.2765,3.02409766 7.0005,3.02409766 C6.7245,3.02409766 6.5005,2.80009766 6.5005,2.52409766 C6.5005,2.24809766 6.7245,2.02409766 7.0005,2.02409766 L7.0005,2.02409766 Z"
            id="Stroke-313"></path>
        </g>
      </g>
    </g>
  </g>
</svg>
