<?xml version="1.0" encoding="UTF-8" standalone="no"?>
<svg width="24px" height="20px" viewBox="0 0 24 20" version="1.1" xmlns="http://www.w3.org/2000/svg"
     xmlns:xlink="http://www.w3.org/1999/xlink" xmlns:sketch="http://www.bohemiancoding.com/sketch/ns">
  <!-- Generator: Sketch 3.5.1 (25234) - http://www.bohemiancoding.com/sketch -->
  <title>Group</title>
  <desc>Created with Sketch.</desc>
  <defs></defs>
  <g id="FE-Page-de-Recherch" stroke="none" stroke-width="1" fill="none" fill-rule="evenodd" sketch:type="MSPage">
    <g id="Group" sketch:type="MSLayerGroup" transform="translate(-22.000000, -734.000000)" stroke-linejoin="round"
       stroke="#727272">
      <g sketch:type="MSShapeGroup">
        <g transform="translate(21.000000, 255.000000)">
          <g transform="translate(1.000000, 479.000000)">
            <path
              d="M10.5088,8 C12.3118,9.327 12.2108,11.9 11.5028,12.972 C11.0158,12.573 10.5828,12.139 10.5088,11.48 C8.8488,12.139 8.0228,13.437 8.0228,14.96 C8.0228,17.157 9.8028,18.938 11.9998,18.938 C14.1968,18.938 15.9778,17.157 15.9778,14.96 C15.9778,11.751 13.6658,8.728 10.5088,8 L10.5088,8 Z"
              id="Stroke-3900"></path>
            <path
              d="M0.5,0.5 L1.5,4.5 L2.5,4.5 L2.5,19.5 L5.5,19.5 L5.5,4.5 L18.5,4.5 L18.5,19.5 L21.5,19.5 L21.5,4.5 L22.5,4.5 L23.5,0.5 L0.5,0.5 L0.5,0.5 Z"
              id="Stroke-3901" stroke-linecap="round"></path>
            <path d="M5.5,19.5 L19,19.5" id="Stroke-3902"></path>
            <path d="M2,4.5 L6,4.5" id="Stroke-3903"></path>
            <path d="M2.5,7.5 L5.5,7.5" id="Stroke-3904"></path>
            <path d="M2.5,10.5 L5.5,10.5" id="Stroke-3905"></path>
            <path d="M2.5,13.5 L5.5,13.5" id="Stroke-3906"></path>
            <path d="M2.5,16.5 L5.5,16.5" id="Stroke-3907"></path>
            <path d="M18.5,7.5 L21.5,7.5" id="Stroke-3908"></path>
            <path d="M18.5,10.5 L21.5,10.5" id="Stroke-3909"></path>
            <path d="M18.5,13.5 L21.5,13.5" id="Stroke-3910"></path>
            <path d="M18.5,16.5 L21.5,16.5" id="Stroke-3911"></path>
            <path d="M17.5,4.5 L21.5,4.5" id="Stroke-3912"></path>
          </g>
        </g>
      </g>
    </g>
  </g>
</svg>
