<?xml version="1.0" encoding="utf-8"?>
<!-- Generator: Adobe Illustrator 17.0.0, SVG Export Plug-In . SVG Version: 6.00 Build 0)  -->
<!DOCTYPE svg PUBLIC "-//W3C//DTD SVG 1.1//EN" "http://www.w3.org/Graphics/SVG/1.1/DTD/svg11.dtd">
<svg version="1.1" id="Layer_1" xmlns:sketch="http://www.bohemiancoding.com/sketch/ns"
	 xmlns="http://www.w3.org/2000/svg" xmlns:xlink="http://www.w3.org/1999/xlink" x="0px" y="0px" width="44px" height="42px"
	 viewBox="-3 -2.5 44 42" enable-background="new -3 -2.5 44 42" xml:space="preserve">
<title>Group</title>
<desc>Created with Sketch.</desc>
<g id="FE-Index" sketch:type="MSPage">
	<g id="Index-1024" transform="translate(-357.000000, -610.000000)" sketch:type="MSArtboardGroup">
		<g id="Highlights-1024" transform="translate(0.000000, 578.000000)" sketch:type="MSLayerGroup">
			
				<g id="Etre-accuilli-7_x2F_7-et-_x2B_-Souez-accuilli-Copy-_x2B_-Group" transform="translate(266.000000, 32.000000)" sketch:type="MSShapeGroup">
				<g id="Group" transform="translate(90.000000, 0.000000)">
					<g transform="translate(0.800000, 0.000000)">
						<path id="Stroke-1415" fill="none" stroke="#000000" stroke-linejoin="round" d="M7.2,36H0.8v-9.6h6.4V36z"/>
						<path id="Stroke-1416" fill="none" stroke="#000000" stroke-linecap="round" stroke-linejoin="round" d="M7.2,34.4h24
							c0-2.4-5.6-3.2-12-3.2h-8"/>
						<path id="Stroke-1417" fill="none" stroke="#000000" stroke-linejoin="round" d="M7.2,28h4c3.765,0,5.6,2.4,6.4,3.2"/>
						<path id="Fill-1418" d="M4,32c-0.442,0-0.8,0.358-0.8,0.8s0.358,0.8,0.8,0.8s0.8-0.358,0.8-0.8S4.442,32,4,32"/>
						<path id="Stroke-1419" fill="none" stroke="#000000" stroke-linecap="round" stroke-linejoin="round" d="M36.001,20h-33.6
							l3.2,3.2h27.2L36.001,20L36.001,20z"/>
						<path id="Stroke-1420" fill="none" stroke="#000000" stroke-linecap="round" stroke-linejoin="round" d="M0.8,20h36.8"/>
						<path id="Stroke-1421" fill="none" stroke="#000000" stroke-linecap="round" stroke-linejoin="round" d="M21.6,3.2
							c0,1.325-1.074,2.4-2.4,2.4c-1.328,0-2.4-1.075-2.4-2.4s1.072-2.4,2.4-2.4C20.526,0.8,21.6,1.875,21.6,3.2L21.6,3.2z"/>
						<path id="Stroke-1422" fill="none" stroke="#000000" stroke-linecap="round" stroke-linejoin="round" d="M4.8,20
							c0-7.954,6.446-14.4,14.4-14.4S33.6,12.046,33.6,20"/>
						<path id="Stroke-1423" fill="none" stroke="#000000" stroke-linecap="round" stroke-linejoin="round" d="M10.435,14.4
							c1.848-2.888,5.082-4.8,8.765-4.8"/>
					</g>
				</g>
			</g>
		</g>
	</g>
</g>
</svg>
