<?xml version="1.0" encoding="utf-8"?>
<!-- Generator: Adobe Illustrator 17.0.0, SVG Export Plug-In . SVG Version: 6.00 Build 0)  -->
<!DOCTYPE svg PUBLIC "-//W3C//DTD SVG 1.1//EN" "http://www.w3.org/Graphics/SVG/1.1/DTD/svg11.dtd">
<svg version="1.1" id="Layer_1" xmlns:sketch="http://www.bohemiancoding.com/sketch/ns"
	 xmlns="http://www.w3.org/2000/svg" xmlns:xlink="http://www.w3.org/1999/xlink" x="0px" y="0px" width="44px" height="42px"
	 viewBox="-2 -1.5 44 42" enable-background="new -2 -1.5 44 42" xml:space="preserve">
<title>Rectangle 1 + conditionsico</title>
<desc>Created with Sketch.</desc>
<g id="Page-1" sketch:type="MSPage">
	<g id="Rectangle-1-_x2B_-conditionsico" transform="translate(-2.000000, -1.000000)" sketch:type="MSLayerGroup">
		<rect id="Rectangle-1" sketch:type="MSShapeGroup" fill="none" width="44" height="42">
		</rect>
		<g id="conditionsico" transform="translate(2.000000, 2.000000)" sketch:type="MSShapeGroup">
			<g id="FE-Index">
				<g id="Index-1024">
					<g id="Highlights-1024">
						<g id="Profiter-de-nos-conn-_x2B_-Souez-accuilli-_x2B_-Group">
							<g id="Group">
								<g>
									<path id="Stroke-843" fill="none" stroke="#000000" d="M39.167,17.5H0.833v-6.667h38.333V17.5L39.167,17.5z"/>
									<path id="Stroke-844" fill="none" stroke="#000000" d="M37.5,37.5h-35v-20h35V37.5L37.5,37.5z"/>
									<path id="Stroke-845" fill="none" stroke="#000000" d="M14.167,10.833V37.5"/>
									<path id="Stroke-846" fill="none" stroke="#000000" d="M25.833,37.5V10.833"/>
									<path id="Stroke-847" fill="none" stroke="#000000" d="M29.429,7.114C27.8,8.742,20,10.649,20,10.649
										s1.907-7.802,3.535-9.428c1.627-1.627,4.265-1.627,5.893,0C31.055,2.847,31.055,5.485,29.429,7.114L29.429,7.114
										L29.429,7.114z"/>
									<path id="Stroke-848" fill="none" stroke="#000000" d="M10.571,7.114C12.2,8.742,20,10.649,20,10.649
										s-1.908-7.802-3.535-9.428s-4.265-1.627-5.893,0C8.945,2.847,8.943,5.485,10.571,7.114L10.571,7.114L10.571,7.114z"/>
								</g>
							</g>
						</g>
					</g>
				</g>
			</g>
		</g>
	</g>
</g>
</svg>
