<?xml version="1.0" encoding="UTF-8" standalone="no"?>
<svg width="17px" height="21px" viewBox="0 0 17 21" version="1.1" xmlns="http://www.w3.org/2000/svg"
     xmlns:xlink="http://www.w3.org/1999/xlink" xmlns:sketch="http://www.bohemiancoding.com/sketch/ns">
  <!-- Generator: Sketch 3.5.1 (25234) - http://www.bohemiancoding.com/sketch -->
  <title>Group</title>
  <desc>Created with Sketch.</desc>
  <defs></defs>
  <g id="FE-Page-de-Recherch" stroke="none" stroke-width="1" fill="none" fill-rule="evenodd" sketch:type="MSPage">
    <g id="Group" sketch:type="MSLayerGroup" transform="translate(-25.000000, -663.000000)" stroke="#727272"
       stroke-linejoin="round">
      <g transform="translate(21.000000, 255.000000)" sketch:type="MSShapeGroup">
        <g transform="translate(5.000000, 408.000000)">
          <path
            d="M0.416666667,2.38723592 C0.416666667,1.46723592 1.16333333,0.720569255 2.08333333,0.720569255 L12.9166667,0.720569255 C13.8366667,0.720569255 14.5833333,1.46723592 14.5833333,2.38723592 L14.5833333,17.3872359 C14.5833333,18.3072359 13.8366667,19.0539026 12.9166667,19.0539026 L2.08333333,19.0539026 C1.16333333,19.0539026 0.416666667,18.3072359 0.416666667,17.3872359 L0.416666667,2.38723592 L0.416666667,2.38723592 Z"
            id="Stroke-2393"></path>
          <path d="M2.91666667,20.3039026 L2.91666667,19.0539026" id="Stroke-2394"></path>
          <path d="M12.0833333,20.3039026 L12.0833333,19.0539026" id="Stroke-2395"></path>
          <path d="M0.416666667,7.38723592 L14.5833333,7.38723592" id="Stroke-2396"></path>
          <path d="M2.91666667,2.80390259 L2.91666667,5.30390259" id="Stroke-2397"></path>
          <path d="M2.91666667,8.63723592 L2.91666667,13.6372359" id="Stroke-2398"></path>
        </g>
      </g>
    </g>
  </g>
</svg>
