<?xml version="1.0" encoding="UTF-8" standalone="no"?>
<svg width="16px" height="20px" viewBox="0 0 16 20" version="1.1" xmlns="http://www.w3.org/2000/svg"
     xmlns:xlink="http://www.w3.org/1999/xlink" xmlns:sketch="http://www.bohemiancoding.com/sketch/ns">
  <!-- Generator: Sketch 3.5.1 (25234) - http://www.bohemiancoding.com/sketch -->
  <title>Stroke 1 + Stroke 2</title>
  <desc>Created with Sketch.</desc>
  <defs></defs>
  <g id="FE-Page-de-Recherch" stroke="none" stroke-width="1" fill="none" fill-rule="evenodd" sketch:type="MSPage">
    <g id="Group" sketch:type="MSLayerGroup" transform="translate(-23.000000, -510.000000)" stroke-linecap="round"
       stroke="#727272" stroke-linejoin="round">
      <g transform="translate(21.000000, 255.000000)" id="Stroke-1-+-Stroke-2" sketch:type="MSShapeGroup">
        <g transform="translate(3.000000, 255.000000)">
          <path
            d="M7.08333333,3.19108073 L8.125,5.69108073 L11.25,5.69108073 L8.75,8.19108073 L9.58333333,11.5244141 L7.08333333,9.44108073 L4.58333333,11.5244141 L5.41666667,8.19108073 L2.91666667,5.69108073 L6.04166667,5.69108073 L7.08333333,3.19108073 L7.08333333,3.19108073 Z"
            id="Stroke-1"></path>
          <path
            d="M14.1666667,7.77441406 C14.1666667,3.86358073 10.995,0.691080729 7.08333333,0.691080729 C3.17166667,0.691080729 0,3.86358073 0,7.77441406 C0,11.1810807 2.40583333,14.0244141 5.61,14.7027474 L7.08333333,19.8577474 L8.55666667,14.7027474 C11.7608333,14.0244141 14.1666667,11.1810807 14.1666667,7.77441406 L14.1666667,7.77441406 Z"
            id="Stroke-2"></path>
        </g>
      </g>
    </g>
  </g>
</svg>
