<?xml version="1.0" encoding="UTF-8" standalone="no"?>
<svg width="24px" height="21px" viewBox="0 0 24 21" version="1.1" xmlns="http://www.w3.org/2000/svg"
     xmlns:xlink="http://www.w3.org/1999/xlink" xmlns:sketch="http://www.bohemiancoding.com/sketch/ns">
  <!-- Generator: Sketch 3.5.1 (25234) - http://www.bohemiancoding.com/sketch -->
  <title>Group</title>
  <desc>Created with Sketch.</desc>
  <defs></defs>
  <g id="FE-Page-de-bien-" stroke="none" stroke-width="1" fill="none" fill-rule="evenodd" sketch:type="MSPage">
    <g id="Entertaiment:-+-Salle-de-cinema,-sat-+-Group" sketch:type="MSLayerGroup"
       transform="translate(0.000000, 1.000000)" stroke="#727272" stroke-linejoin="round">
      <g id="Group" sketch:type="MSShapeGroup">
        <path
          d="M19.3193,18.999 C17.5783,18.086 14.9083,17.499 11.9093,17.499 C8.9113,17.499 6.2413,18.086 4.5003,18.999"
          id="Stroke-17" stroke-linecap="round"></path>
        <path
          d="M23.5,14.0001 C23.5,14.5501 23.051,15.0001 22.5,15.0001 L1.5,15.0001 C0.95,15.0001 0.5,14.5501 0.5,14.0001 L0.5,1.0001 C0.5,0.4501 0.95,0.0001 1.5,0.0001 L22.5,0.0001 C23.051,0.0001 23.5,0.4501 23.5,1.0001 L23.5,14.0001 L23.5,14.0001 Z"
          id="Stroke-18"></path>
        <path d="M21.4998,13 L2.4998,13 L2.4998,2 L21.4998,2 L21.4998,13 Z" id="Stroke-19"></path>
        <path d="M10.5,15.0001 L10.5,17.5001" id="Stroke-20"></path>
        <path d="M13.5,15.0001 L13.5,17.5001" id="Stroke-21"></path>
      </g>
    </g>
  </g>
</svg>
