<?xml version="1.0" encoding="utf-8"?>
<!-- Generator: Adobe Illustrator 17.0.0, SVG Export Plug-In . SVG Version: 6.00 Build 0)  -->
<!DOCTYPE svg PUBLIC "-//W3C//DTD SVG 1.1//EN" "http://www.w3.org/Graphics/SVG/1.1/DTD/svg11.dtd">
<svg version="1.1" id="Layer_1" xmlns:sketch="http://www.bohemiancoding.com/sketch/ns"
	 xmlns="http://www.w3.org/2000/svg" xmlns:xlink="http://www.w3.org/1999/xlink" x="0px" y="0px" width="44px" height="42px"
	 viewBox="-2 -0.5 44 42" enable-background="new -2 -0.5 44 42" xml:space="preserve">
<title>expertico</title>
<desc>Created with Sketch.</desc>
<g id="Page-1" sketch:type="MSPage">
	<g id="expertico" transform="translate(-2.000000, -1.000000)" sketch:type="MSLayerGroup">
		<rect id="Rectangle-1" sketch:type="MSShapeGroup" fill="none" width="44" height="42">
		</rect>
		<g id="FE-Index" transform="translate(2.000000, 1.000000)" sketch:type="MSShapeGroup">
			<g id="Index-1024">
				<g id="Highlights-1024">
					<g id="Group">
						<g>
							<path id="Stroke-16" fill="none" stroke="#0B0B0A" d="M35.652,40H4.348"/>
							<path id="Stroke-18" fill="none" stroke="#0B0B0A" d="M13.911,22.609h12.174v17.391H13.911V22.609L13.911,22.609z"/>
							<path id="Stroke-20" fill="none" stroke="#0B0B0A" d="M20,13.913l4.348,8.696h-8.696L20,13.913L20,13.913L20,13.913z"/>
							<path id="Stroke-21" fill="none" stroke="#0B0B0A" d="M20,0l1.739,3.478h3.478l-2.814,2.148l1.075,3.939L20,6.957
								l-3.478,2.609l1.381-3.939l-3.12-2.148h3.478L20,0L20,0L20,0z"/>
							<path id="Stroke-22" fill="none" stroke="#0B0B0A" d="M33.043,6.957l1.739,3.478h3.478l-2.814,2.148l1.075,3.939
								l-3.478-2.609l-3.478,2.609l1.381-3.939l-3.12-2.148h3.478L33.043,6.957L33.043,6.957L33.043,6.957z"/>
							<path id="Stroke-23" fill="none" stroke="#0B0B0A" d="M34.783,20.87l1.739,3.478H40l-2.814,2.148l1.075,3.939l-3.478-2.609
								l-3.478,2.609l1.381-3.939l-3.12-2.148h3.478L34.783,20.87L34.783,20.87L34.783,20.87z"/>
							<path id="Stroke-24" fill="none" stroke="#0B0B0A" d="M5.217,20.87l1.739,3.478h3.478l-2.814,2.148l1.075,3.939l-3.478-2.609
								l-3.478,2.609l1.381-3.939L0,24.348h3.478L5.217,20.87L5.217,20.87L5.217,20.87z"/>
							<path id="Stroke-25" fill="none" stroke="#0B0B0A" d="M6.957,6.957l1.739,3.478h3.478L9.36,12.583l1.075,3.939l-3.478-2.609
								l-3.478,2.609l1.381-3.939l-3.12-2.148h3.478L6.957,6.957L6.957,6.957L6.957,6.957z"/>
							<path id="Stroke-26" fill="none" stroke="#0B0B0A" d="M17.391,40v-5.217h5.217V40"/>
							<path id="Stroke-27" fill="none" stroke="#0B0B0A" d="M17.391,26.087v0.87"/>
							<path id="Stroke-28" fill="none" stroke="#0B0B0A" d="M22.609,26.087v0.87"/>
							<path id="Stroke-29" fill="none" stroke="#0B0B0A" d="M17.391,30.435v0.87"/>
							<path id="Stroke-30" fill="none" stroke="#0B0B0A" d="M22.609,30.435v0.87"/>
						</g>
					</g>
				</g>
			</g>
		</g>
	</g>
</g>
</svg>
