<?xml version="1.0" encoding="UTF-8" standalone="no"?>
<svg width="24" height="24" viewBox="0 0 24 24" fill="none" xmlns="http://www.w3.org/2000/svg">
  <path fill-rule="evenodd" clip-rule="evenodd" d="M22.082 10.2458L23.8457 13.0839C24.1206 13.5262 24.0194 14.1078 23.6121 14.4283L20.9978 16.4834C20.7907 16.6465 20.6547 16.8852 20.6192 17.1488L20.1712 20.4724C20.1013 20.9902 19.6553 21.3701 19.14 21.3498L15.8349 21.22C15.5727 21.2096 15.317 21.3038 15.1229 21.4826L12.6732 23.7366C12.2916 24.0878 11.7089 24.0878 11.327 23.7366L8.87752 21.4826C8.68293 21.3041 8.42752 21.2096 8.1656 21.22L4.8602 21.3498C4.34534 21.3701 3.89887 20.9904 3.82926 20.4724L3.38127 17.1488C3.3457 16.8852 3.20974 16.6464 3.00241 16.4834L0.38814 14.4283C-0.0192702 14.1078 -0.120682 13.5262 0.154259 13.0839L1.91766 10.2457C2.05739 10.0207 2.10472 9.74899 2.04911 9.48922L1.34923 6.21055C1.24006 5.69964 1.53127 5.18816 2.02233 5.02845L5.1722 4.00403C5.42185 3.92278 5.6302 3.74553 5.7524 3.51037L7.29415 0.542782C7.53455 0.0801055 8.08192 -0.121804 8.55921 0.0757706L11.6212 1.34425C11.8639 1.44455 12.1358 1.44455 12.3785 1.34425L15.4409 0.075532C15.9182 -0.122042 16.4656 0.0798669 16.7058 0.542544L18.2475 3.51041C18.3697 3.74557 18.5781 3.92282 18.8277 4.00407L21.9776 5.02849C22.4684 5.1882 22.7599 5.69964 22.6507 6.21059L21.9506 9.48926C21.8952 9.74903 21.9423 10.0207 22.082 10.2458ZM6.30581 13.9856L9.22481 16.0532L10.0885 15.6751L8.24799 11.3511L7.44843 11.7014L8.67744 14.5887L5.70334 12.465L4.86597 12.8317L6.70596 17.1554L7.50553 16.8054L6.30581 13.9856ZM10.9987 15.2767L9.1587 10.953L12.3201 9.56896L12.6311 10.3006L10.3304 11.3074L10.7383 12.2658L12.879 11.3288L13.189 12.0574L11.0483 12.9942L11.5491 14.1709L13.931 13.1285L14.241 13.8571L10.9987 15.2767ZM15.9808 9.26122L18.2057 12.1224L19.1189 11.7227L18.3144 6.94553L17.4477 7.32493L18.0787 10.6316L16.0461 7.93845L15.022 8.38665L15.5065 11.6976L13.5997 9.00881L12.7187 9.39481L15.5764 13.2728L16.5099 12.8642L15.9808 9.26122Z" fill="#94CDDF"/>
</svg>
