<?xml version="1.0" encoding="UTF-8" standalone="no"?>
<svg width="16" height="22" viewBox="0 0 16 22" fill="none" xmlns="http://www.w3.org/2000/svg">
  <path fill-rule="evenodd" clip-rule="evenodd"
        d="M15.2437 9.78247C15.7478 10.384 16 11.0953 16 11.9165C16 12.6613 15.7384 13.3057 15.217 13.8503C14.6945 14.3948 14.0758 14.6669 13.3608 14.6669H9.55227C9.58887 14.8005 9.62557 14.9151 9.66217 15.0106C9.69844 15.1061 9.74939 15.2112 9.8133 15.3258C9.87725 15.4404 9.92325 15.5264 9.95065 15.5836C10.1156 15.9081 10.2419 16.1756 10.329 16.3855C10.4161 16.5958 10.5027 16.8821 10.5901 17.245C10.6773 17.6076 10.7206 17.9706 10.7206 18.3335C10.7206 18.5626 10.718 18.7489 10.7136 18.8921C10.7094 19.0353 10.686 19.2502 10.6451 19.5367C10.6036 19.823 10.5485 20.0618 10.4799 20.2527C10.4111 20.4436 10.301 20.6586 10.15 20.8971C9.99866 21.1361 9.81542 21.3292 9.59981 21.4773C9.38424 21.6253 9.10935 21.7494 8.77478 21.8496C8.43988 21.9499 8.06197 22 7.64005 22C7.40175 22 7.19568 21.9093 7.02134 21.7278C6.83804 21.5369 6.68196 21.2982 6.55376 21.0118C6.42536 20.7253 6.33593 20.4771 6.28546 20.2669C6.23504 20.0569 6.17768 19.7655 6.11377 19.3933C6.03098 18.992 5.96939 18.7034 5.92787 18.5267C5.8867 18.3501 5.80627 18.1186 5.68722 17.8322C5.56793 17.5456 5.426 17.3166 5.26096 17.1446C4.95852 16.8296 4.49565 16.2566 3.87218 15.426C3.4229 14.8149 2.96004 14.2373 2.4834 13.693C2.00667 13.1486 1.65838 12.8669 1.43843 12.8478C1.20943 12.8288 1.01232 12.7309 0.847272 12.5541C0.682229 12.3775 0.599731 12.1698 0.599731 11.9311V2.75021C0.599731 2.50194 0.686756 2.28959 0.860949 2.11295C1.03505 1.93612 1.24131 1.84306 1.47966 1.83348C1.80045 1.82389 2.52462 1.61405 3.65219 1.20309C4.35792 0.955215 4.91012 0.766339 5.30888 0.637613C5.70754 0.508886 6.2648 0.370327 6.97925 0.222136C7.69437 0.0741959 8.35425 0 8.95909 0H10.7329C11.9523 0.0190632 12.8548 0.391598 13.4417 1.1171C13.9732 1.77604 14.1977 2.6402 14.1154 3.70964C14.4729 4.06291 14.7206 4.5115 14.8579 5.0559C15.0135 5.63803 15.0135 6.19668 14.8579 6.73131C15.2795 7.31379 15.4766 7.96785 15.4489 8.69356C15.45 8.99942 15.3815 9.36217 15.2437 9.78247Z"
        fill="#EBCCCC"/>
</svg>
