<?xml version="1.0" encoding="UTF-8" standalone="no"?>
<svg width="22" height="22" viewBox="0 0 22 22" fill="none" xmlns="http://www.w3.org/2000/svg">
  <path fill-rule="evenodd" clip-rule="evenodd"
        d="M10.8531 0.000999695C4.77838 0.0823046 -0.0798326 5.07323 0.000994087 11.1481C0.082299 17.2204 5.07275 22.0801 11.1472 21.9993C17.2207 21.9175 22.0798 16.9265 21.999 10.8521C21.9177 4.77934 16.927 -0.0800661 10.8531 0.000999695ZM10.8205 17.6958L10.7598 17.6949C9.82431 17.6671 9.16478 16.978 9.19132 16.0563C9.21739 15.1505 9.89294 14.4929 10.7976 14.4929L10.8519 14.4938C11.8134 14.5223 12.4655 15.2045 12.4385 16.1527C12.4117 17.0612 11.7467 17.6958 10.8205 17.6958ZM13.4421 11.0616C14.0517 10.5867 14.5355 10.1986 14.7555 9.88601C15.1782 9.30683 15.3925 8.66954 15.3925 7.99113C15.3925 6.77825 14.9558 5.8485 14.095 5.22771C13.2453 4.61506 12.1661 4.30442 10.8877 4.30442C9.91111 4.30442 9.07415 4.52395 8.40147 4.95702C7.33087 5.63711 6.75313 6.80264 6.68498 8.42132L6.6802 8.53539H9.32285V8.42611C9.32285 7.98658 9.45317 7.55638 9.71096 7.14675C9.96157 6.74835 10.3805 6.55418 10.9925 6.55418C11.6094 6.55418 12.036 6.7144 12.2606 7.03077C12.4942 7.35862 12.6123 7.72688 12.6123 8.12504C12.6123 8.412 12.4933 8.70398 12.2242 9.07487C12.1092 9.24274 11.9547 9.39985 11.7716 9.53783C11.7173 9.57275 10.4386 10.3961 9.85898 11.0766C9.48952 11.51 9.46752 12.0344 9.4362 12.9259L9.42878 13.1427H11.9918L11.9928 13.0349C11.9979 12.6523 12.0246 12.5696 12.0779 12.4043C12.0838 12.3861 12.09 12.3669 12.0965 12.3462C12.18 12.081 12.4024 11.8115 12.7709 11.525L13.4421 11.0616Z"
        fill="#DBD9D9"/>
</svg>
