<?xml version="1.0" encoding="UTF-8" standalone="no"?>
<svg width="16" height="22" viewBox="0 0 16 22" fill="none" xmlns="http://www.w3.org/2000/svg">
  <path fill-rule="evenodd" clip-rule="evenodd"
        d="M15.2437 12.2175C15.7478 11.616 16 10.9047 16 10.0835C16 9.33869 15.7384 8.69426 15.217 8.1497C14.6945 7.6052 14.0758 7.3331 13.3608 7.3331H9.55227C9.58887 7.19946 9.62557 7.08488 9.66217 6.98941C9.69844 6.89394 9.74939 6.7888 9.8133 6.67422C9.87725 6.55959 9.92325 6.4736 9.95065 6.41641C10.1156 6.09194 10.2419 5.8244 10.329 5.6145C10.4161 5.40421 10.5027 5.11786 10.5901 4.75501C10.6773 4.39235 10.7206 4.02935 10.7206 3.6665C10.7206 3.43744 10.718 3.25107 10.7136 3.10795C10.7094 2.96472 10.686 2.74981 10.6451 2.46331C10.6036 2.17696 10.5485 1.93822 10.4799 1.74734C10.4111 1.55641 10.301 1.34139 10.15 1.10285C9.99866 0.863863 9.81542 0.670773 9.59981 0.522682C9.38424 0.374692 9.10935 0.25058 8.77478 0.150398C8.43988 0.0501161 8.06197 0 7.64005 0C7.40175 0 7.19568 0.0907507 7.02134 0.272202C6.83804 0.463135 6.68196 0.701826 6.55376 0.988174C6.42536 1.27467 6.33593 1.52295 6.28546 1.73309C6.23504 1.94314 6.17768 2.23445 6.11377 2.60674C6.03098 3.00797 5.96939 3.29662 5.92787 3.47326C5.8867 3.64989 5.80627 3.88141 5.68722 4.16781C5.56793 4.45441 5.426 4.68342 5.26096 4.85539C4.95852 5.17043 4.49565 5.74338 3.87218 6.57403C3.4229 7.18506 2.96004 7.76272 2.4834 8.30703C2.00667 8.85143 1.65838 9.13306 1.43843 9.15218C1.20943 9.17124 1.01232 9.26911 0.847272 9.44585C0.682229 9.62249 0.599731 9.83022 0.599731 10.0689V19.2498C0.599731 19.4981 0.686756 19.7104 0.860949 19.887C1.03505 20.0639 1.24131 20.1569 1.47966 20.1665C1.80045 20.1761 2.52462 20.386 3.65219 20.7969C4.35792 21.0448 4.91012 21.2337 5.30888 21.3624C5.70754 21.4911 6.2648 21.6297 6.97925 21.7779C7.69437 21.9258 8.35425 22 8.95909 22H9.19291H10.238H10.7329C11.9523 21.9809 12.8548 21.6084 13.4417 20.8829C13.9732 20.224 14.1977 19.3598 14.1154 18.2904C14.4729 17.9371 14.7206 17.4885 14.8579 16.9441C15.0135 16.362 15.0135 15.8033 14.8579 15.2687C15.2795 14.6862 15.4766 14.0321 15.4489 13.3064C15.45 13.0006 15.3815 12.6378 15.2437 12.2175Z"
        fill="#A5D89D"/>
</svg>
