<?xml version="1.0" encoding="utf-8"?>
<!-- Generator: Adobe Illustrator 17.0.0, SVG Export Plug-In . SVG Version: 6.00 Build 0)  -->
<!DOCTYPE svg PUBLIC "-//W3C//DTD SVG 1.1//EN" "http://www.w3.org/Graphics/SVG/1.1/DTD/svg11.dtd">
<svg version="1.1" id="Layer_1" xmlns:sketch="http://www.bohemiancoding.com/sketch/ns"
	 xmlns="http://www.w3.org/2000/svg" xmlns:xlink="http://www.w3.org/1999/xlink" x="0px" y="0px" width="44px" height="42px"
	 viewBox="-2 -3 44 42" enable-background="new -2 -3 44 42" xml:space="preserve">
<title>informationsico</title>
<desc>Created with Sketch.</desc>
<g id="Page-1" sketch:type="MSPage">
	<g id="informationsico" transform="translate(-2.000000, -1.000000)" sketch:type="MSLayerGroup">
		<rect id="Rectangle-1" sketch:type="MSShapeGroup" fill="none" width="44" height="42">
		</rect>
		<g id="FE-Index" transform="translate(2.000000, 2.000000)" sketch:type="MSShapeGroup">
			<g id="Index-1024">
				<g id="Highlights-1024">
					<g id="Recevoir-les-inforam-_x2B_-Souez-accuilli-Copy-3-_x2B_-Stroke-170-_x2B_-Stroke-171-_x2B_-Fill-172">
						<g id="Stroke-170-_x2B_-Stroke-171-_x2B_-Fill-172">
							<g id="Group">
								<path id="Stroke-170" fill="none" stroke="#000000" d="M33.333,23.333L33.333,23.333c1.38,0,2.5,1.12,2.5,2.5
									c0,1.382-1.12,2.5-2.5,2.5h-1.667c1.38,0,2.5,1.12,2.5,2.5c0,1.382-1.12,1.667-2.5,1.667H20.833
									c-4.752,0-5.833-0.833-11.667-1.667V16.667C13.25,16.667,20,9.167,20,2.5c0-2.635,3.647-3.617,5,1.198
									c0.833,2.968-1.667,8.802-1.667,8.802h13.333c1.38,0,2.5,1.12,2.5,2.5c0,1.382-1.12,3.333-2.5,3.333H35
									c1.38,0,2.5,1.12,2.5,2.5c0,1.382-1.12,2.5-2.5,2.5H33.333"/>
								<path id="Stroke-171" fill="none" stroke="#000000" d="M9.167,34.167H0.833v-20h8.333V34.167L9.167,34.167z"/>
								<path id="Fill-172" d="M5.833,30C5.373,30,5,30.373,5,30.833c0,0.46,0.373,0.833,0.833,0.833s0.833-0.373,0.833-0.833
									C6.667,30.373,6.293,30,5.833,30"/>
							</g>
						</g>
					</g>
				</g>
			</g>
		</g>
	</g>
</g>
</svg>
