<?xml version="1.0" encoding="UTF-8" standalone="no"?>
<svg width="24px" height="24px" viewBox="0 0 24 24" version="1.1" xmlns="http://www.w3.org/2000/svg"
     xmlns:xlink="http://www.w3.org/1999/xlink" xmlns:sketch="http://www.bohemiancoding.com/sketch/ns">
  <!-- Generator: Sketch 3.4.4 (17249) - http://www.bohemiancoding.com/sketch -->
  <title>Group</title>
  <desc>Created with Sketch.</desc>
  <defs></defs>
  <g id="FE-Index" stroke="none" stroke-width="1" fill="none" fill-rule="evenodd" sketch:type="MSPage">
    <g id="Index-1024" sketch:type="MSArtboardGroup" transform="translate(-384.000000, -3188.000000)" stroke="#000000"
       stroke-linejoin="round">
      <g id="Foot-1024" sketch:type="MSLayerGroup" transform="translate(0.000000, 2946.000000)">
        <g id="Group" transform="translate(384.000000, 242.000000)" sketch:type="MSShapeGroup">
          <path
            d="M23.5,19.5 C23.5,21.709 21.709,23.5 19.5,23.5 L4.5,23.5 C2.291,23.5 0.5,21.709 0.5,19.5 L0.5,4.5 C0.5,2.291 2.291,0.5 4.5,0.5 L19.5,0.5 C21.709,0.5 23.5,2.291 23.5,4.5 L23.5,19.5 L23.5,19.5 Z"
            id="Stroke-231"></path>
          <path d="M0.5,8.5 L7.705,8.5" id="Stroke-232"></path>
          <path d="M16.2695,8.5 L23.5245,8.5" id="Stroke-233"></path>
          <path
            d="M17.5,12 C17.5,15.038 15.037,17.5 12,17.5 C8.963,17.5 6.5,15.038 6.5,12 C6.5,8.962 8.963,6.5 12,6.5 C15.037,6.5 17.5,8.962 17.5,12 L17.5,12 Z"
            id="Stroke-234"></path>
          <path d="M21.5,6.5 L18.5,6.5 L18.5,3.5 L21.5,3.5 L21.5,6.5 Z" id="Stroke-235"></path>
          <path d="M2.5,1 L2.5,8.5" id="Stroke-236"></path>
          <path d="M4.5,0.5 L4.5,8.5" id="Stroke-237"></path>
          <path d="M6.5,0.5 L6.5,8.5" id="Stroke-238"></path>
        </g>
      </g>
    </g>
  </g>
</svg>
