<?xml version="1.0" encoding="UTF-8" standalone="no"?>
<svg width="32px" height="28px" viewBox="0 0 32 28" version="1.1" xmlns="http://www.w3.org/2000/svg"
     xmlns:xlink="http://www.w3.org/1999/xlink" xmlns:sketch="http://www.bohemiancoding.com/sketch/ns">
  <!-- Generator: Sketch 3.5.1 (25234) - http://www.bohemiancoding.com/sketch -->
  <title>Stroke 526 + Stroke 527</title>
  <desc>Created with Sketch.</desc>
  <defs></defs>
  <g id="FE-Page-de-bien-" stroke="none" stroke-width="1" fill="none" fill-rule="evenodd" sketch:type="MSPage">
    <g id="Property-Page-1024---Location" sketch:type="MSArtboardGroup" transform="translate(-578.000000, -788.000000)"
       stroke="#000000" stroke-linejoin="round">
      <g id="10-invités-+-Stroke-526-+-Stroke-527" sketch:type="MSLayerGroup"
         transform="translate(519.000000, 788.000000)">
        <g id="Stroke-526-+-Stroke-527" transform="translate(59.000000, 0.000000)" sketch:type="MSShapeGroup">
          <path
            d="M12.6628,27.3333333 L24.6668,27.3333333 C24.6668,27.3333333 24.6668,22.864 24.0348,20.9586667 C23.4841333,19.3013333 19.5068,18.192 15.3334667,16.6186667 L15.3334667,13.2853333 C15.3334667,13.2853333 16.6668,12.46 16.6668,9.28533333 C18.0001333,9.28533333 18.0001333,6.61866667 16.6668,6.61866667 C16.6668,6.30666667 18.1041333,4.38133333 17.6668,2.61866667 C17.0348,0.08 9.46546667,0.08 8.83346667,2.61866667 C5.6748,1.984 7.33346667,6.192 7.33346667,6.61866667 L7.33346667,9.28533333 C7.33346667,12.46 10.0001333,13.2853333 10.0001333,13.2853333 L10.0001333,16.6186667 C6.29613333,18.0253333 1.84813333,19.3013333 1.2988,20.9586667 C0.6668,22.864 0.6668,27.3333333 0.6668,27.3333333 L12.6628,27.3333333 L12.6628,27.3333333 Z"
            id="Stroke-526"></path>
          <path
            d="M28,27.3333333 L31.3333333,27.3333333 C31.3333333,27.3333333 31.3333333,22.864 30.7013333,20.9586667 C30.1506667,19.3013333 26.1733333,17.5253333 22,15.952 L22,13.952 C22,13.952 23.3333333,13.1266667 23.3333333,9.952 C24.6666667,9.952 24.6666667,7.28533333 23.3333333,7.28533333 C23.3333333,6.97333333 24.7706667,4.80266667 24.3333333,3.04 C24.0373333,1.85333333 21.5,-0.024 19.5,1.30933333"
            id="Stroke-527" stroke-linecap="round"></path>
        </g>
      </g>
    </g>
  </g>
</svg>
