<?xml version="1.0" encoding="UTF-8" standalone="no"?>
<svg width="20px" height="20px" viewBox="0 0 20 20" version="1.1" xmlns="http://www.w3.org/2000/svg"
     xmlns:xlink="http://www.w3.org/1999/xlink" xmlns:sketch="http://www.bohemiancoding.com/sketch/ns">
  <!-- Generator: Sketch 3.5.1 (25234) - http://www.bohemiancoding.com/sketch -->
  <title>Stroke 1355 + Stroke 1356</title>
  <desc>Created with Sketch.</desc>
  <defs></defs>
  <g id="FE-Page-de-Recherch" stroke="none" stroke-width="1" fill="none" fill-rule="evenodd" sketch:type="MSPage">
    <g id="Group" sketch:type="MSLayerGroup" transform="translate(-22.000000, -335.000000)" stroke-linecap="round"
       stroke="#727272" stroke-linejoin="round">
      <g transform="translate(21.000000, 255.000000)" id="Stroke-1355-+-Stroke-1356" sketch:type="MSShapeGroup">
        <g transform="translate(1.000000, 81.000000)">
          <path
            d="M13.0013333,10.0439167 C13.0013333,11.6555833 11.6955,12.9605833 10.0846667,12.9605833 C8.473,12.9605833 7.168,11.6555833 7.168,10.0439167 C7.168,8.43308333 8.473,7.12725 10.0846667,7.12725 C11.6955,7.12725 13.0013333,8.43308333 13.0013333,10.0439167 L13.0013333,10.0439167 Z"
            id="Stroke-1355"></path>
          <path
            d="M19.2,7.08333333 C18.5583333,5.11333333 16.4425,4.03583333 14.4733333,4.675 C14.2175,4.75916667 13.975,4.86916667 13.75,5 C13.8041667,4.745 13.835,4.48166667 13.835,4.21083333 C13.835,2.14 12.1558333,0.460833333 10.085,0.460833333 C8.01333333,0.460833333 6.335,2.14 6.335,4.21083333 C6.335,4.48166667 6.365,4.745 6.41916667,4.99916667 C6.19416667,4.86916667 5.95333333,4.75916667 5.69583333,4.675 C3.72583333,4.03583333 1.61083333,5.11416667 0.970833333,7.08333333 C0.33,9.0525 1.4075,11.1683333 3.37833333,11.8083333 C3.635,11.8925 3.895,11.945 4.15333333,11.9716667 C3.96,12.1458333 3.78083333,12.34 3.6225,12.5591667 C2.405,14.235 2.77666667,16.58 4.45166667,17.7975 C6.12666667,19.015 8.4725,18.6433333 9.69,16.9675 C9.84833333,16.7483333 9.97916667,16.5183333 10.085,16.2808333 C10.19,16.5183333 10.3208333,16.7483333 10.4791667,16.9675 C11.6966667,18.6433333 14.0433333,19.0141667 15.7175,17.7975 C17.395,16.58 17.7641667,14.235 16.5466667,12.5591667 C16.3883333,12.34 16.2091667,12.1458333 16.0158333,11.9716667 C16.2741667,11.945 16.5341667,11.8925 16.7908333,11.8083333 C18.7608333,11.1683333 19.8391667,9.0525 19.2,7.08333333 L19.2,7.08333333 Z"
            id="Stroke-1356"></path>
        </g>
      </g>
    </g>
  </g>
</svg>
