<?xml version="1.0" encoding="UTF-8" standalone="no"?>
<svg width="35px" height="35px" viewBox="0 0 35 35" version="1.1" xmlns="http://www.w3.org/2000/svg"
     xmlns:xlink="http://www.w3.org/1999/xlink" xmlns:sketch="http://www.bohemiancoding.com/sketch/ns">
  <!-- Generator: Sketch 3.4.4 (17249) - http://www.bohemiancoding.com/sketch -->
  <title>Rectangle 148 + Type something</title>
  <desc>Created with Sketch.</desc>
  <defs>
    <rect id="path-1" x="0" y="0" width="35" height="35"></rect>
  </defs>
  <g id="FE-Page-de-Recherch" stroke="none" stroke-width="1" fill="none" fill-rule="evenodd" sketch:type="MSPage">
    <g id="Search---320" sketch:type="MSArtboardGroup" transform="translate(-275.000000, -38.000000)">
      <g id="Rectangle-148-+-Type-something" sketch:type="MSLayerGroup" transform="translate(275.000000, 38.000000)">
        <g id="Rectangle-148">
          <use stroke="#C9C9C9" stroke-width="1" fill="#FBFBFB" fill-rule="evenodd" sketch:type="MSShapeGroup"
               xlink:href="#path-1"></use>
          <use stroke="none" fill="none" xlink:href="#path-1"></use>
        </g>
        <path
          d="M18,26.796875 C17.9374997,26.796875 17.8802086,26.7838543 17.828125,26.7578125 C17.7760414,26.7317707 17.7291669,26.6927086 17.6875,26.640625 C17.6666666,26.6197916 17.4270856,26.2890657 16.96875,25.6484375 C16.5104144,25.0078093 16.0052111,24.1718802 15.453125,23.140625 C15.11979,22.5364553 14.8255221,21.937503 14.5703125,21.34375 C14.3151029,20.749997 14.0937509,20.1718778 13.90625,19.609375 C13.6770822,18.8906214 13.5026048,18.1953159 13.3828125,17.5234375 C13.2630202,16.8515591 13.203125,16.2083364 13.203125,15.59375 C13.203125,14.9374967 13.3281237,14.3177112 13.578125,13.734375 C13.8281263,13.1510387 14.1718728,12.6432313 14.609375,12.2109375 C15.0468772,11.7786437 15.5546846,11.4348971 16.1328125,11.1796875 C16.7109404,10.9244779 17.33333,10.796875 18,10.796875 C18.66667,10.796875 19.2890596,10.9244779 19.8671875,11.1796875 C20.4453154,11.4348971 20.9531228,11.7786437 21.390625,12.2109375 C21.8281272,12.6432313 22.1718737,13.1510387 22.421875,13.734375 C22.6718763,14.3177112 22.796875,14.9374967 22.796875,15.59375 C22.796875,16.2083364 22.7369798,16.8515591 22.6171875,17.5234375 C22.4973952,18.1953159 22.3229178,18.8906214 22.09375,19.609375 C21.9062491,20.1718778 21.6848971,20.749997 21.4296875,21.34375 C21.1744779,21.937503 20.88021,22.5364553 20.546875,23.140625 C19.9947889,24.1718802 19.4895856,25.0078093 19.03125,25.6484375 C18.5729144,26.2890657 18.3333334,26.6197916 18.3125,26.640625 C18.2708331,26.6927086 18.2239586,26.7317707 18.171875,26.7578125 C18.1197914,26.7838543 18.0625003,26.796875 18,26.796875 L18,26.796875 Z M18,11.59375 C17.4479139,11.59375 16.9296899,11.7005198 16.4453125,11.9140625 C15.9609351,12.1276052 15.5364602,12.4140607 15.171875,12.7734375 C14.8072898,13.1328143 14.5208344,13.5546851 14.3125,14.0390625 C14.1041656,14.5234399 14,15.0416639 14,15.59375 C14,16.2500033 14.0651035,16.9062467 14.1953125,17.5625 C14.3255215,18.2187533 14.4947906,18.8541636 14.703125,19.46875 C14.9114594,20.0833364 15.1432279,20.6718722 15.3984375,21.234375 C15.6536471,21.7968778 15.9062487,22.3072894 16.15625,22.765625 C16.5104184,23.432295 16.8567691,24.0234349 17.1953125,24.5390625 C17.5338559,25.0546901 17.8020823,25.4531236 18,25.734375 C18.1979177,25.4531236 18.4661441,25.0546901 18.8046875,24.5390625 C19.1432309,24.0234349 19.4947898,23.4270867 19.859375,22.75 C20.0989595,22.2916644 20.3463529,21.783857 20.6015625,21.2265625 C20.8567721,20.669268 21.0885406,20.0807323 21.296875,19.4609375 C21.5052094,18.8411427 21.6744785,18.2057324 21.8046875,17.5546875 C21.9348965,16.9036426 22,16.2500033 22,15.59375 C22,15.0416639 21.8958344,14.5234399 21.6875,14.0390625 C21.4791656,13.5546851 21.1927102,13.1328143 20.828125,12.7734375 C20.4635398,12.4140607 20.0390649,12.1276052 19.5546875,11.9140625 C19.0703101,11.7005198 18.5520861,11.59375 18,11.59375 L18,11.59375 Z M18,18 C17.33333,18 16.7656273,17.7656273 16.296875,17.296875 C15.8281227,16.8281227 15.59375,16.26042 15.59375,15.59375 C15.59375,14.9374967 15.8281227,14.3750023 16.296875,13.90625 C16.7656273,13.4374977 17.33333,13.203125 18,13.203125 C18.66667,13.203125 19.2343727,13.4374977 19.703125,13.90625 C20.1718773,14.3750023 20.40625,14.9374967 20.40625,15.59375 C20.40625,16.26042 20.1718773,16.8281227 19.703125,17.296875 C19.2343727,17.7656273 18.66667,18 18,18 L18,18 Z M18,14 C17.5624978,14 17.1875016,14.1562484 16.875,14.46875 C16.5624984,14.7812516 16.40625,15.1562478 16.40625,15.59375 C16.40625,16.0416689 16.5624984,16.4218734 16.875,16.734375 C17.1875016,17.0468766 17.5624978,17.203125 18,17.203125 C18.4375022,17.203125 18.8124984,17.0468766 19.125,16.734375 C19.4375016,16.4218734 19.59375,16.0416689 19.59375,15.59375 C19.59375,15.1562478 19.4375016,14.7812516 19.125,14.46875 C18.8124984,14.1562484 18.4375022,14 18,14 L18,14 Z"
          id="Type-something" fill="#000000" sketch:type="MSShapeGroup"></path>
      </g>
    </g>
  </g>
</svg>
