<?xml version="1.0" encoding="UTF-8" standalone="no"?>
<svg width="14px" height="13px" viewBox="0 0 14 13" version="1.1" xmlns="http://www.w3.org/2000/svg"
     xmlns:xlink="http://www.w3.org/1999/xlink" xmlns:sketch="http://www.bohemiancoding.com/sketch/ns">
  <!-- Generator: Sketch 3.4.4 (17249) - http://www.bohemiancoding.com/sketch -->
  <title></title>
  <desc>Created with Sketch.</desc>
  <defs></defs>
  <g id="FE-Page-de-Recherch" stroke="none" stroke-width="1" fill="none" fill-rule="evenodd" sketch:type="MSPage">
    <g id="Search---320-map-mode" sketch:type="MSArtboardGroup" transform="translate(-298.000000, -9.000000)"
       fill="#4A4A4A">
      <g id="Group" sketch:type="MSLayerGroup">
        <path
          d="M305.703125,15.5039062 L311.347656,9.859375 C311.451823,9.75520781 311.503906,9.63476631 311.503906,9.49804688 C311.503906,9.36132744 311.451823,9.24088594 311.347656,9.13671875 C311.25651,9.04557246 311.142579,9 311.005859,9 C310.86914,9 310.748698,9.04557246 310.644531,9.13671875 L305,14.8007812 L299.355469,9.13671875 C299.251302,9.04557246 299.13086,9 298.994141,9 C298.857421,9 298.74349,9.04557246 298.652344,9.13671875 C298.548177,9.24088594 298.496094,9.36132744 298.496094,9.49804688 C298.496094,9.63476631 298.548177,9.75520781 298.652344,9.859375 L304.296875,15.5039062 L298.652344,21.1484375 C298.548177,21.2395838 298.496094,21.3567701 298.496094,21.5 C298.496094,21.6432299 298.548177,21.7604162 298.652344,21.8515625 C298.691406,21.9036461 298.743489,21.9427082 298.808594,21.96875 C298.873698,21.9947918 298.938802,22.0078125 299.003906,22.0078125 C299.069011,22.0078125 299.130859,21.9947918 299.189453,21.96875 C299.248047,21.9427082 299.303385,21.9036461 299.355469,21.8515625 L305,16.2070312 L310.644531,21.8515625 C310.696615,21.9036461 310.751953,21.9427082 310.810547,21.96875 C310.869141,21.9947918 310.930989,22.0078125 310.996094,22.0078125 C311.061198,22.0078125 311.126302,21.9947918 311.191406,21.96875 C311.256511,21.9427082 311.308594,21.9036461 311.347656,21.8515625 C311.451823,21.7604162 311.503906,21.6432299 311.503906,21.5 C311.503906,21.3567701 311.451823,21.2395838 311.347656,21.1484375 L305.703125,15.5039062 Z"
          id="" sketch:type="MSShapeGroup"></path>
      </g>
    </g>
  </g>
</svg>
