<?xml version="1.0" encoding="UTF-8" standalone="no"?>
<svg width="14px" height="13px" viewBox="0 0 14 13" version="1.1" xmlns="http://www.w3.org/2000/svg"
     xmlns:xlink="http://www.w3.org/1999/xlink" xmlns:sketch="http://www.bohemiancoding.com/sketch/ns">
  <!-- Generator: Sketch 3.4.4 (17249) - http://www.bohemiancoding.com/sketch -->
  <title> copy</title>
  <desc>Created with Sketch.</desc>
  <defs></defs>
  <g id="FE-Page-de-Recherch" stroke="none" stroke-width="1" fill="none" fill-rule="evenodd" sketch:type="MSPage">
    <g id="Group" sketch:type="MSLayerGroup" transform="translate(-460.000000, -69.000000)" fill="#FBFBFB">
      <path
        d="M467.703125,75.5039062 L473.347656,69.859375 C473.451823,69.7552078 473.503906,69.6347663 473.503906,69.4980469 C473.503906,69.3613274 473.451823,69.2408859 473.347656,69.1367188 C473.25651,69.0455725 473.142579,69 473.005859,69 C472.86914,69 472.748698,69.0455725 472.644531,69.1367188 L467,74.8007812 L461.355469,69.1367188 C461.251302,69.0455725 461.13086,69 460.994141,69 C460.857421,69 460.74349,69.0455725 460.652344,69.1367188 C460.548177,69.2408859 460.496094,69.3613274 460.496094,69.4980469 C460.496094,69.6347663 460.548177,69.7552078 460.652344,69.859375 L466.296875,75.5039062 L460.652344,81.1484375 C460.548177,81.2395838 460.496094,81.3567701 460.496094,81.5 C460.496094,81.6432299 460.548177,81.7604162 460.652344,81.8515625 C460.691406,81.9036461 460.743489,81.9427082 460.808594,81.96875 C460.873698,81.9947918 460.938802,82.0078125 461.003906,82.0078125 C461.069011,82.0078125 461.130859,81.9947918 461.189453,81.96875 C461.248047,81.9427082 461.303385,81.9036461 461.355469,81.8515625 L467,76.2070312 L472.644531,81.8515625 C472.696615,81.9036461 472.751953,81.9427082 472.810547,81.96875 C472.869141,81.9947918 472.930989,82.0078125 472.996094,82.0078125 C473.061198,82.0078125 473.126302,81.9947918 473.191406,81.96875 C473.256511,81.9427082 473.308594,81.9036461 473.347656,81.8515625 C473.451823,81.7604162 473.503906,81.6432299 473.503906,81.5 C473.503906,81.3567701 473.451823,81.2395838 473.347656,81.1484375 L467.703125,75.5039062 Z"
        id="-copy" sketch:type="MSShapeGroup"></path>
    </g>
  </g>
</svg>
