<?xml version="1.0" encoding="UTF-8" standalone="no"?>
<svg width="24px" height="24px" viewBox="0 0 24 24" version="1.1" xmlns="http://www.w3.org/2000/svg"
     xmlns:xlink="http://www.w3.org/1999/xlink" xmlns:sketch="http://www.bohemiancoding.com/sketch/ns">
  <!-- Generator: Sketch 3.5.1 (25234) - http://www.bohemiancoding.com/sketch -->
  <title>Stroke 1357 + Stroke 1358</title>
  <desc>Created with Sketch.</desc>
  <defs></defs>
  <g id="FE-Page-de-bien-" stroke="none" stroke-width="1" fill="none" fill-rule="evenodd" sketch:type="MSPage">
    <g id="Property-Page-1024---Location" sketch:type="MSArtboardGroup" transform="translate(-688.000000, -1671.000000)"
       stroke-linecap="round" stroke="#000000" stroke-linejoin="round">
      <g id="Group" sketch:type="MSLayerGroup" transform="translate(0.000000, 1444.000000)">
        <g transform="translate(21.000000, 30.000000)" id="Stroke-1357-+-Stroke-1358" sketch:type="MSShapeGroup">
          <g transform="translate(667.000000, 197.000000)">
            <path
              d="M21.1562,11.5 C21.9662,10.962 22.5002,10.043 22.5002,9 C22.5002,7.343 20.5002,6 18.5002,6 C17.5002,6 15.7502,7.375 14.2502,8.75 C15.6252,7.25 17.0002,5.5 17.0002,4.5 C17.0002,2.5 15.6562,0.5 14.0002,0.5 C12.9562,0.5 12.0372,1.034 11.5002,1.843 C10.9632,1.034 10.0442,0.5 9.0002,0.5 C7.3432,0.5 6.0002,2.5 6.0002,4.5 C6.0002,5.5 7.3752,7.25 8.7502,8.75 C7.2502,7.375 5.5002,6 4.5002,6 C2.5002,6 0.5002,7.343 0.5002,9 C0.5002,10.043 1.0342,10.962 1.8432,11.5 C1.0342,12.037 0.5002,12.956 0.5002,14 C0.5002,15.656 2.5002,17 4.5002,17 C6.5002,17 11.5002,14.5 11.5002,14.5 C11.5002,14.5 16.5002,17 18.5002,17 C20.5002,17 22.5002,15.656 22.5002,14 C22.5002,12.956 21.9662,12.037 21.1562,11.5 L21.1562,11.5 Z"
              id="Stroke-1357"></path>
            <path d="M11.5,14.5 L11.5,21.5 C11.5,22.6 12.175,23.5 13,23.5 L14.5,23.5" id="Stroke-1358"></path>
          </g>
        </g>
      </g>
    </g>
  </g>
</svg>
