<?xml version="1.0" encoding="UTF-8" standalone="no"?>
<svg width="21px" height="24px" viewBox="0 0 21 24" version="1.1" xmlns="http://www.w3.org/2000/svg"
     xmlns:xlink="http://www.w3.org/1999/xlink" xmlns:sketch="http://www.bohemiancoding.com/sketch/ns">
  <!-- Generator: Sketch 3.5.1 (25234) - http://www.bohemiancoding.com/sketch -->
  <title>Group</title>
  <desc>Created with Sketch.</desc>
  <defs></defs>
  <g id="FE-Page-de-bien-" stroke="none" stroke-width="1" fill="none" fill-rule="evenodd" sketch:type="MSPage">
    <g id="Property-Page-1024---Location" sketch:type="MSArtboardGroup" transform="translate(-686.000000, -2463.000000)"
       stroke-linecap="round" stroke="#000000" stroke-linejoin="round">
      <g id="Group" sketch:type="MSLayerGroup" transform="translate(0.000000, 1444.000000)">
        <g transform="translate(687.000000, 1019.000000)" sketch:type="MSShapeGroup">
          <path
            d="M15.5332,3.0615 C14.9342,3.0615 14.3712,3.2115 13.8792,3.4765 C13.4052,1.7955 11.3622,0.5615 9.5302,0.5615 C7.6982,0.5615 5.6292,1.7955 5.1542,3.4765 C4.6622,3.2115 4.0982,3.0615 3.5022,3.0615 C1.5682,3.0615 0.0012,4.6285 0.0012,6.5615 C0.0012,8.4945 1.5002,10.0615 3.5002,10.0615 L3.5002,23.4995 L15.5302,23.4995 L15.5302,10.0615 C17.5302,10.0615 19.0312,8.4945 19.0312,6.5615 C19.0312,4.6285 17.4652,3.0615 15.5332,3.0615 L15.5332,3.0615 Z"
            id="Stroke-1598"></path>
          <path d="M3.5,19.5 L15.53,19.5" id="Stroke-1599"></path>
          <path d="M6.5098,15.5 L6.5098,19.5" id="Stroke-1600"></path>
          <path d="M9.5,14.5 L9.5,19.5" id="Stroke-1601"></path>
          <path d="M12.5205,15.5 L12.5205,19.5" id="Stroke-1602"></path>
        </g>
      </g>
    </g>
  </g>
</svg>
