<?xml version="1.0" encoding="UTF-8" standalone="no"?>
<svg width="23px" height="24px" viewBox="0 0 23 24" version="1.1" xmlns="http://www.w3.org/2000/svg"
     xmlns:xlink="http://www.w3.org/1999/xlink" xmlns:sketch="http://www.bohemiancoding.com/sketch/ns">
  <!-- Generator: Sketch 3.4.4 (17249) - http://www.bohemiancoding.com/sketch -->
  <title></title>
  <desc>Created with Sketch.</desc>
  <defs></defs>
  <g id="FE-Page-de-Recherch" stroke="none" stroke-width="1" fill="none" fill-rule="evenodd" sketch:type="MSPage">
    <g id="Search---1024" sketch:type="MSArtboardGroup" transform="translate(-800.000000, -236.000000)" fill="#4A4A4A">
      <g id="Group" sketch:type="MSLayerGroup" transform="translate(519.000000, 203.000000)">
        <g id="" sketch:type="MSShapeGroup">
          <path
            d="M292.390625,50.1953125 C291.656246,50.1953125 290.960941,50.0546889 290.304688,49.7734375 C289.648434,49.4921861 289.078127,49.1054712 288.59375,48.6132812 C288.109373,48.1210913 287.722658,47.5468783 287.433594,46.890625 C287.14453,46.2343717 287,45.5390662 287,44.8046875 C287,44.0546837 287.14453,43.3515658 287.433594,42.6953125 C287.722658,42.0390592 288.109373,41.4687524 288.59375,40.984375 C289.078127,40.4999976 289.648434,40.1171889 290.304688,39.8359375 C290.960941,39.5546861 291.656246,39.4140625 292.390625,39.4140625 C293.140629,39.4140625 293.843747,39.5546861 294.5,39.8359375 C295.156253,40.1171889 295.72656,40.4999976 296.210938,40.984375 C296.695315,41.4687524 297.078124,42.0390592 297.359375,42.6953125 C297.640626,43.3515658 297.78125,44.0546837 297.78125,44.8046875 C297.78125,45.5390662 297.640626,46.2343717 297.359375,46.890625 C297.078124,47.5468783 296.695315,48.1210913 296.210938,48.6132812 C295.72656,49.1054712 295.156253,49.4921861 294.5,49.7734375 C293.843747,50.0546889 293.140629,50.1953125 292.390625,50.1953125 L292.390625,50.1953125 Z M292.390625,40.609375 C291.234369,40.609375 290.250004,41.0195271 289.4375,41.8398438 C288.624996,42.6601604 288.21875,43.6484317 288.21875,44.8046875 C288.21875,45.9609433 288.624996,46.9492146 289.4375,47.7695312 C290.250004,48.5898479 291.234369,49 292.390625,49 C293.546881,49 294.535152,48.5898479 295.355469,47.7695312 C296.175785,46.9492146 296.585938,45.9609433 296.585938,44.8046875 C296.585938,43.6484317 296.175785,42.6601604 295.355469,41.8398438 C294.535152,41.0195271 293.546881,40.609375 292.390625,40.609375 L292.390625,40.609375 Z M292.390625,38.1953125 C292.234374,38.1953125 292.097657,38.1367193 291.980469,38.0195312 C291.863281,37.9023432 291.804688,37.7656258 291.804688,37.609375 L291.804688,34 C291.804688,33.8281241 291.863281,33.6835943 291.980469,33.5664062 C292.097657,33.4492182 292.234374,33.390625 292.390625,33.390625 C292.562501,33.390625 292.707031,33.4492182 292.824219,33.5664062 C292.941407,33.6835943 293,33.8281241 293,34 L293,37.609375 C293,37.7656258 292.941407,37.9023432 292.824219,38.0195312 C292.707031,38.1367193 292.562501,38.1953125 292.390625,38.1953125 L292.390625,38.1953125 Z M292.390625,56.1953125 C292.234374,56.1953125 292.097657,56.1367193 291.980469,56.0195312 C291.863281,55.9023432 291.804688,55.7656258 291.804688,55.609375 L291.804688,52 C291.804688,51.8281241 291.863281,51.6835943 291.980469,51.5664062 C292.097657,51.4492182 292.234374,51.390625 292.390625,51.390625 C292.562501,51.390625 292.707031,51.4492182 292.824219,51.5664062 C292.941407,51.6835943 293,51.8281241 293,52 L293,55.609375 C293,55.7656258 292.941407,55.9023432 292.824219,56.0195312 C292.707031,56.1367193 292.562501,56.1953125 292.390625,56.1953125 L292.390625,56.1953125 Z M285.195312,45.390625 L281.609375,45.390625 C281.437499,45.390625 281.292969,45.3320318 281.175781,45.2148438 C281.058593,45.0976557 281,44.9609383 281,44.8046875 C281,44.6328116 281.058593,44.4882818 281.175781,44.3710938 C281.292969,44.2539057 281.437499,44.1953125 281.609375,44.1953125 L285.195312,44.1953125 C285.367188,44.1953125 285.511718,44.2539057 285.628906,44.3710938 C285.746094,44.4882818 285.804688,44.6328116 285.804688,44.8046875 C285.804688,44.9609383 285.746094,45.0976557 285.628906,45.2148438 C285.511718,45.3320318 285.367188,45.390625 285.195312,45.390625 L285.195312,45.390625 Z M303.195312,45.390625 L299.609375,45.390625 C299.437499,45.390625 299.292969,45.3320318 299.175781,45.2148438 C299.058593,45.0976557 299,44.9609383 299,44.8046875 C299,44.6328116 299.058593,44.4882818 299.175781,44.3710938 C299.292969,44.2539057 299.437499,44.1953125 299.609375,44.1953125 L303.195312,44.1953125 C303.367188,44.1953125 303.511718,44.2539057 303.628906,44.3710938 C303.746094,44.4882818 303.804688,44.6328116 303.804688,44.8046875 C303.804688,44.9609383 303.746094,45.0976557 303.628906,45.2148438 C303.511718,45.3320318 303.367188,45.390625 303.195312,45.390625 L303.195312,45.390625 Z M286.390625,39.390625 C286.3125,39.390625 286.238282,39.3789064 286.167969,39.3554688 C286.097656,39.3320311 286.03125,39.2890628 285.96875,39.2265625 L283.578125,36.8359375 C283.453124,36.7109369 283.390625,36.5664071 283.390625,36.4023438 C283.390625,36.2382804 283.453124,36.0937506 283.578125,35.96875 C283.687501,35.8593745 283.828124,35.8046875 284,35.8046875 C284.171876,35.8046875 284.312499,35.8593745 284.421875,35.96875 L286.835938,38.3828125 C286.945313,38.492188 287,38.6289054 287,38.7929688 C287,38.9570321 286.945313,39.1015619 286.835938,39.2265625 C286.773437,39.2890628 286.703125,39.3320311 286.625,39.3554688 C286.546875,39.3789064 286.46875,39.390625 286.390625,39.390625 L286.390625,39.390625 Z M284,53.8046875 C283.921875,53.8046875 283.847657,53.7890627 283.777344,53.7578125 C283.707031,53.7265623 283.640625,53.6796878 283.578125,53.6171875 C283.453124,53.507812 283.390625,53.3710946 283.390625,53.2070312 C283.390625,53.0429679 283.453124,52.8984381 283.578125,52.7734375 L285.96875,50.3828125 C286.093751,50.2578119 286.23828,50.1953125 286.402344,50.1953125 C286.566407,50.1953125 286.710937,50.2578119 286.835938,50.3828125 C286.945313,50.492188 287,50.6289054 287,50.7929688 C287,50.9570321 286.945313,51.1015619 286.835938,51.2265625 L284.421875,53.6171875 C284.359375,53.6796878 284.292969,53.7265623 284.222656,53.7578125 C284.152343,53.7890627 284.078125,53.8046875 284,53.8046875 L284,53.8046875 Z M300.804688,53.8046875 C300.726562,53.8046875 300.648438,53.7890627 300.570312,53.7578125 C300.492187,53.7265623 300.429688,53.6796878 300.382812,53.6171875 L297.96875,51.2265625 C297.859374,51.1015619 297.804688,50.9570321 297.804688,50.7929688 C297.804688,50.6289054 297.859374,50.492188 297.96875,50.3828125 C298.093751,50.2578119 298.23828,50.1953125 298.402344,50.1953125 C298.566407,50.1953125 298.710937,50.2578119 298.835938,50.3828125 L301.226562,52.7734375 C301.335938,52.8984381 301.390625,53.0429679 301.390625,53.2070312 C301.390625,53.3710946 301.335938,53.507812 301.226562,53.6171875 C301.164062,53.6796878 301.097657,53.7265623 301.027344,53.7578125 C300.957031,53.7890627 300.882813,53.8046875 300.804688,53.8046875 L300.804688,53.8046875 Z M298.390625,39.390625 C298.3125,39.390625 298.238282,39.3789064 298.167969,39.3554688 C298.097656,39.3320311 298.03125,39.2890628 297.96875,39.2265625 C297.859374,39.1015619 297.804688,38.9570321 297.804688,38.7929688 C297.804688,38.6289054 297.859374,38.492188 297.96875,38.3828125 L300.382812,35.96875 C300.492188,35.8593745 300.628905,35.8046875 300.792969,35.8046875 C300.957032,35.8046875 301.101562,35.8593745 301.226562,35.96875 C301.335938,36.0937506 301.390625,36.2382804 301.390625,36.4023438 C301.390625,36.5664071 301.335938,36.7109369 301.226562,36.8359375 L298.835938,39.2265625 C298.773437,39.2890628 298.703125,39.3320311 298.625,39.3554688 C298.546875,39.3789064 298.46875,39.390625 298.390625,39.390625 L298.390625,39.390625 Z"></path>
        </g>
      </g>
    </g>
  </g>
</svg>
