<?xml version="1.0" encoding="UTF-8" standalone="no"?>
<svg width="23px" height="20px" viewBox="0 0 23 20" version="1.1" xmlns="http://www.w3.org/2000/svg"
     xmlns:xlink="http://www.w3.org/1999/xlink" xmlns:sketch="http://www.bohemiancoding.com/sketch/ns">
  <!-- Generator: Sketch 3.4.4 (17249) - http://www.bohemiancoding.com/sketch -->
  <title>Type something</title>
  <desc>Created with Sketch.</desc>
  <defs></defs>
  <g id="FE-Page-de-Recherch" stroke="none" stroke-width="1" fill="none" fill-rule="evenodd" sketch:type="MSPage">
    <g id="Search---1024" sketch:type="MSArtboardGroup" transform="translate(-591.000000, -237.000000)" fill="#4A4A4A">
      <g id="Group" sketch:type="MSLayerGroup" transform="translate(519.000000, 203.000000)">
        <g id="Type-something" sketch:type="MSShapeGroup">
          <path
            d="M94.6875,40.84375 L91.078125,36.0390625 C91.0312498,35.9765622 90.9765628,35.9257814 90.9140625,35.8867188 C90.8515622,35.8476561 90.7812504,35.8203126 90.703125,35.8046875 L83.5078125,34.609375 L83.4023438,34.609375 L83.296875,34.609375 L76.1015625,35.8046875 C76.0234371,35.8203126 75.9531253,35.8476561 75.890625,35.8867188 C75.8281247,35.9257814 75.7734377,35.9765622 75.7265625,36.0390625 L72.1171875,40.84375 C72.0390621,40.9531255 72,41.0820305 72,41.2304688 C72,41.378907 72.054687,41.4999995 72.1640625,41.59375 L82.9453125,53.59375 C83.0078128,53.6562503 83.0781246,53.7070311 83.15625,53.7460938 C83.2343754,53.7851564 83.3124996,53.8046875 83.390625,53.8046875 C83.4843755,53.8046875 83.5703121,53.7851564 83.6484375,53.7460938 C83.7265629,53.7070311 83.7890623,53.6562503 83.8359375,53.59375 L94.640625,41.59375 C94.7343755,41.4999995 94.7851562,41.378907 94.7929688,41.2304688 C94.8007813,41.0820305 94.7656254,40.9531255 94.6875,40.84375 L94.6875,40.84375 Z M87.3515625,40.609375 L83.390625,51.4375 L79.453125,40.609375 L87.3515625,40.609375 Z M80.0390625,39.390625 L83.390625,36.0390625 L86.7421875,39.390625 L80.0390625,39.390625 Z M85.1484375,36.109375 L89.578125,36.8359375 L88.1015625,39.0625 L85.1484375,36.109375 Z M78.703125,39.0625 L77.203125,36.8359375 L81.65625,36.109375 L78.703125,39.0625 Z M77.6015625,39.578125 L74.015625,40.3046875 L76.171875,37.4453125 L77.6015625,39.578125 Z M78.2109375,40.6796875 L81.7734375,50.5 L73.7578125,41.5703125 L78.2109375,40.6796875 Z M88.59375,40.6796875 L93.046875,41.5703125 L85.0078125,50.5 L88.59375,40.6796875 Z M89.203125,39.578125 L90.6328125,37.4453125 L92.7890625,40.3046875 L89.203125,39.578125 Z"></path>
        </g>
      </g>
    </g>
  </g>
</svg>
