<?xml version="1.0" encoding="UTF-8" standalone="no"?>
<svg width="28px" height="28px" viewBox="0 0 28 28" version="1.1" xmlns="http://www.w3.org/2000/svg"
     xmlns:xlink="http://www.w3.org/1999/xlink" xmlns:sketch="http://www.bohemiancoding.com/sketch/ns">
  <!-- Generator: Sketch 3.5.1 (25234) - http://www.bohemiancoding.com/sketch -->
  <title>Group</title>
  <desc>Created with Sketch.</desc>
  <defs></defs>
  <g id="FE-Page-de-bien-" stroke="none" stroke-width="1" fill="none" fill-rule="evenodd" sketch:type="MSPage">
    <g id="Property-Page-1024---Location" sketch:type="MSArtboardGroup" transform="translate(-416.000000, -787.000000)"
       stroke="#000000" stroke-linejoin="round">
      <g id="4-salles-d’eau-+-Group" sketch:type="MSLayerGroup" transform="translate(354.000000, 788.000000)">
        <g id="Group" transform="translate(62.000000, 0.000000)" sketch:type="MSShapeGroup">
          <path
            d="M15.75,15.9166667 L27.4166667,15.9166667 C27.4166667,21.7161667 22.7161667,26.4166667 16.9166667,26.4166667 L11.0833333,26.4166667 C5.28383333,26.4166667 0.583333333,21.7161667 0.583333333,15.9166667 L7.58333333,15.9166667"
            id="Stroke-3822"></path>
          <path
            d="M20.1489167,1.75485 L21.2000833,0.702516667 C21.8860833,0.0911833333 22.86725,-0.0593166667 23.7060833,0.317516667 C24.54375,0.69435 25.08275,1.52735 25.08275,2.44668333 L25.08275,15.9170167"
            id="Stroke-3823"></path>
          <path
            d="M20.1489167,5.66621667 C21.22925,4.58588333 21.22925,2.83471667 20.1489167,1.75438333 C19.06975,0.675216667 17.3185833,0.675216667 16.23825,1.75438333 L15.58725,2.40655 L19.49675,6.31838333 L20.1489167,5.66621667 L20.1489167,5.66621667 Z"
            id="Stroke-3824"></path>
          <path d="M13.3095667,3.17795 L11.1909,4.15561667" id="Stroke-3825" stroke-linecap="round"></path>
          <path d="M18.5413667,8.42678333 L17.6243667,10.57345" id="Stroke-3826" stroke-linecap="round"></path>
          <path d="M15.4127167,6.34638333 L13.7537167,7.98671667" id="Stroke-3827" stroke-linecap="round"></path>
          <path
            d="M15.75,14.75 C15.75,14.106 15.2273333,13.5833333 14.5833333,13.5833333 L8.75,13.5833333 C8.106,13.5833333 7.58333333,14.106 7.58333333,14.75 L7.58333333,21.75 L15.75,21.75 L15.75,14.75 L15.75,14.75 Z"
            id="Stroke-3828" stroke-linecap="round"></path>
        </g>
      </g>
    </g>
  </g>
</svg>
