<?xml version="1.0" encoding="UTF-8" standalone="no"?>
<svg width="10px" height="12px" viewBox="0 0 10 12" version="1.1" xmlns="http://www.w3.org/2000/svg"
     xmlns:xlink="http://www.w3.org/1999/xlink" xmlns:sketch="http://www.bohemiancoding.com/sketch/ns">
  <!-- Generator: Sketch 3.5.1 (25234) - http://www.bohemiancoding.com/sketch -->
  <title>e</title>
  <desc>Created with Sketch.</desc>
  <defs></defs>
  <g id="FE-Page-de-bien-" stroke="none" stroke-width="1" fill="none" fill-rule="evenodd" sketch:type="MSPage">
    <path
      d="M4.87792969,1.86914062 C6.53808594,1.86914062 7.67089844,3.06054688 7.70996094,4.84765625 L1.91894531,4.84765625 C2.03613281,3.0703125 3.22753906,1.86914062 4.87792969,1.86914062 L4.87792969,1.86914062 Z M7.67089844,7.9921875 C7.36816406,8.97851562 6.34277344,9.60351562 5.02441406,9.60351562 C3.14941406,9.60351562 1.91894531,8.3046875 1.91894531,6.30273438 L1.91894531,6.20507813 L9.47753906,6.20507813 L9.47753906,5.54101562 C9.47753906,2.35742188 7.71972656,0.375 4.90722656,0.375 C2.03613281,0.375 0.161132812,2.51367188 0.161132812,5.77539062 C0.161132812,9.03710938 2.02636719,11.0976562 4.98535156,11.0976562 C7.23144531,11.0976562 9.05761719,9.79882812 9.35058594,7.9921875 L7.67089844,7.9921875 Z"
      id="e" fill="#727272" sketch:type="MSShapeGroup"></path>
  </g>
</svg>
