<?xml version="1.0" encoding="UTF-8" standalone="no"?>
<svg width="21px" height="22px" viewBox="0 0 21 22" version="1.1" xmlns="http://www.w3.org/2000/svg"
     xmlns:xlink="http://www.w3.org/1999/xlink" xmlns:sketch="http://www.bohemiancoding.com/sketch/ns">
  <!-- Generator: Sketch 3.5.1 (25234) - http://www.bohemiancoding.com/sketch -->
  <title>Group</title>
  <desc>Created with Sketch.</desc>
  <defs></defs>
  <g id="FE-Page-de-bien-" stroke="none" stroke-width="1" fill="none" fill-rule="evenodd" sketch:type="MSPage">
    <g id="Style:-+-Moderne-+-Group" sketch:type="MSLayerGroup" transform="translate(1.000000, 1.000000)"
       stroke-linecap="round" stroke="#727272" stroke-linejoin="round">
      <g id="Group" sketch:type="MSShapeGroup">
        <path
          d="M4.58333333,9.58333333 C4.58333333,6.82166667 6.82166667,4.58333333 9.58333333,4.58333333 C12.345,4.58333333 14.5833333,6.82166667 14.5833333,9.58333333 L14.5833333,17.9166667 L4.58333333,17.9166667 L4.58333333,9.58333333 L4.58333333,9.58333333 Z"
          id="Stroke-5987"></path>
        <path d="M4.64683333,8.75 L14.5018333,8.75" id="Stroke-5988"></path>
        <path d="M11.25,8.75 L11.25,17.9166667" id="Stroke-5989"></path>
        <path d="M7.91666667,8.75 L7.91666667,17.9166667" id="Stroke-5990"></path>
        <path d="M9.58333333,4.58333333 L9.58333333,8.75" id="Stroke-5991"></path>
        <path d="M9.58333333,8.75 L12.71,5.67" id="Stroke-5992"></path>
        <path d="M9.58333333,8.75 L6.47083333,5.67" id="Stroke-5993"></path>
        <path d="M4.58333333,12.9166667 L14.5833333,12.9166667" id="Stroke-5994"></path>
        <path
          d="M0.416666667,8.75 L0.416666667,5.41666667 L2.5,5.41666667 L2.5125,5.41 C3.54333333,2.5 6.32,0.416666667 9.58333333,0.416666667 C12.85,0.416666667 15.6283333,2.505 16.6566667,5.41833333 L16.6666667,5.41666667 L18.75,5.41666667 L18.75,8.75 L17.0833333,8.75 L17.0833333,19.5833333 L2.08333333,19.5833333 L2.08333333,8.75 L0.416666667,8.75 L0.416666667,8.75 Z"
          id="Stroke-5995"></path>
      </g>
    </g>
  </g>
</svg>
