<?xml version="1.0" encoding="UTF-8"?>
<svg width="120px" height="120px" viewBox="0 0 120 120" version="1.1" xmlns="http://www.w3.org/2000/svg"
     xmlns:xlink="http://www.w3.org/1999/xlink">
  <g id="Page-1" stroke="none" stroke-width="1" fill="none" fill-rule="evenodd">
    <path
      d="M57.1747586,119.934658 L59.7240995,119.934658 L60.334901,119.934658 L60.334901,119.936 L62.7961393,119.936 C61.8694205,119.978511 60.9372197,120 60,120 C59.0529691,120 58.1110628,119.978059 57.1747616,119.934658 Z M19.868541,104.604124 C7.66988423,93.6215547 0,77.7064761 0,60 C0,26.862915 26.862915,0 60,0 C93.137085,0 120,26.862915 120,60 C120,77.6869409 112.34703,93.586435 100.171818,104.567756 C93.1154622,88.5156259 75.1745564,86.9270112 69.8483347,80.690574 L69.0548262,76.4303974 C77.4960232,71.9984449 83.4279996,61.5456127 83.4279996,49.3481816 C83.4279996,33.1408566 72.9510198,20 60.030167,20 C47.1093143,20 36.6323345,33.1408566 36.6323345,49.3481816 C36.6323345,61.6502887 42.6716679,72.1688788 51.2268901,76.5317183 L50.5300696,80.2805932 C45.6509259,86.8678158 27.063845,88.1722264 19.868541,104.604124 Z"
      id="Combined-Shape" fill="#E3E3E3" fill-rule="nonzero"></path>
  </g>
</svg>
