<?xml version="1.0" encoding="UTF-8" standalone="no"?>
<svg width="20px" height="20px" viewBox="0 0 20 20" version="1.1" xmlns="http://www.w3.org/2000/svg"
     xmlns:xlink="http://www.w3.org/1999/xlink" xmlns:sketch="http://www.bohemiancoding.com/sketch/ns">
  <!-- Generator: Sketch 3.5.1 (25234) - http://www.bohemiancoding.com/sketch -->
  <title>Group</title>
  <desc>Created with Sketch.</desc>
  <defs></defs>
  <g id="FE-Page-de-Recherch" stroke="none" stroke-width="1" fill="none" fill-rule="evenodd" sketch:type="MSPage">
    <g id="Group" sketch:type="MSLayerGroup" transform="translate(-22.000000, -422.000000)" stroke="#727272"
       stroke-linejoin="round">
      <g transform="translate(21.000000, 255.000000)" sketch:type="MSShapeGroup">
        <g transform="translate(2.000000, 168.000000)">
          <path d="M17.625,17.625 L0.375,17.625 L0.375,0.375 L17.625,0.375 L17.625,17.625 Z" id="Stroke-1828"></path>
          <path d="M17.625,13.125 L0.375,13.125" id="Stroke-1829"></path>
          <path
            d="M7.125,2.625 C6.19125,2.625 5.4225,3.3105 5.28,4.203 C5.15325,4.155 5.01825,4.125 4.875,4.125 C4.254,4.125 3.75,4.629 3.75,5.25 C3.75,5.871 4.254,6.375 4.875,6.375 L7.125,6.375 C8.16075,6.375 9,5.53575 9,4.5 C9,3.46425 8.16075,2.625 7.125,2.625 L7.125,2.625 Z"
            id="Stroke-1830"></path>
          <path
            d="M2.625,13.125 C2.625,13.125 4.125,9.375 6,9.375 C7.875,9.375 9.375,11.625 9.375,11.625 L11.63625,7.749 C11.86125,7.362 12.27525,7.125 12.72225,7.125 C13.19925,7.125 13.635,7.39425 13.84725,7.821 L16.5,13.125"
            id="Stroke-1831"></path>
        </g>
      </g>
    </g>
  </g>
</svg>
