<?xml version="1.0" encoding="UTF-8" standalone="no"?>
<svg width="21px" height="21px" viewBox="0 0 21 21" version="1.1" xmlns="http://www.w3.org/2000/svg"
     xmlns:xlink="http://www.w3.org/1999/xlink" xmlns:sketch="http://www.bohemiancoding.com/sketch/ns">
  <!-- Generator: Sketch 3.5.1 (25234) - http://www.bohemiancoding.com/sketch -->
  <title>Group</title>
  <desc>Created with Sketch.</desc>
  <defs></defs>
  <g id="FE-Page-de-Recherch" stroke="none" stroke-width="1" fill="none" fill-rule="evenodd" sketch:type="MSPage">
    <g id="Group" sketch:type="MSLayerGroup" transform="translate(-23.000000, -592.000000)" stroke-linecap="round"
       stroke="#727272" stroke-linejoin="round">
      <g transform="translate(21.000000, 255.000000)" sketch:type="MSShapeGroup">
        <g transform="translate(2.000000, 338.000000)">
          <path d="M3.3301,8.4297 C7.2321,4.5267 13.5621,4.5207 17.4721,8.4297" id="Stroke-2273"></path>
          <path d="M20.2998,4.6016 C14.8358,-0.8624 5.9748,-0.8724 0.4998,4.6016" id="Stroke-2274"></path>
          <path d="M6.1572,12.2568 C8.5002,9.9158 12.2982,9.9118 14.6432,12.2568" id="Stroke-2275"></path>
          <path d="M17.4717,8.4297 C13.5697,4.5267 7.2387,4.5207 3.3297,8.4297" id="Stroke-2276"></path>
          <path d="M14.6436,12.2568 C12.3006,9.9158 8.5036,9.9118 6.1576,12.2568" id="Stroke-2277"></path>
          <path
            d="M12.4004,17.5 C12.4004,18.604 11.5044,19.5 10.4004,19.5 C9.2964,19.5 8.4004,18.604 8.4004,17.5 C8.4004,16.396 9.2964,15.5 10.4004,15.5 C11.5044,15.5 12.4004,16.396 12.4004,17.5 L12.4004,17.5 Z"
            id="Stroke-2278"></path>
        </g>
      </g>
    </g>
  </g>
</svg>
